<svg width="13" height="21" xmlns="http://www.w3.org/2000/svg"><path d="M4.129 15.332c-.98-.453-1.927-.872-2.85-1.325a1.362 1.362 0 01-.775-1.133c-.063-.598.152-1.089.653-1.418.52-.34 1.07-.34 1.597-.015.992.623 2.13.975 3.3 1.02 1.342.047 2.57-.32 3.733-.995.975-.566 2.02-.107 2.27.95.14.601-.129 1.259-.78 1.597-.902.47-1.845.864-2.824 1.315.08.095.186.244.314.372.797.806 1.606 1.606 2.398 2.411.667.678.701 1.628.09 2.221-.592.578-1.524.526-2.175-.125a765.126 765.126 0 01-2.287-2.295c-.495-.496-.497-.496-.975-.018-.738.74-1.505 1.453-2.204 2.229-.75.831-1.82.686-2.311.204-.479-.464-.651-1.57.177-2.317.801-.722 1.534-1.52 2.296-2.287.131-.134.252-.279.353-.391z" fill="#fff"/><circle cx="6.35" cy="5.746" r="3.704" stroke="#fff" stroke-width="3.083"/></svg>