<svg width="23" height="14" xmlns="http://www.w3.org/2000/svg"><path d="M12.39 13.158c.562 0 .791-.375.785-.844-.029-1.769.659-2.72 1.9-1.48 1.372 1.373 1.656 2.324 3.323 2.324h2.951c.745 0 1.039-.24 1.039-.617 0-.796-1.311-2.2-2.422-3.232-1.555-1.443-1.628-1.477-.288-3.215 1.66-2.157 3.834-4.922 1.912-4.922h-3.672c-.712 0-.764.402-1.017 1-.918 2.164-2.662 4.968-3.325 4.54-.692-.448-.375-2.22-.322-4.853.013-.696.01-1.173-1.053-1.42A7.444 7.444 0 0010.533.25c-2.097 0-3.543.879-2.721 1.032 1.449.27 1.31 3.405.972 4.76-.589 2.357-2.8-1.867-3.722-3.971-.222-.506-.29-.899-1.084-.899H.976c-.454 0-.726.148-.726.476 0 .556 2.73 6.199 5.337 9.012 2.542 2.744 5.054 2.498 6.803 2.498z" fill="#fff"/></svg>