<svg width="16" height="10" viewBox="0 0 16 10" fill="none" xmlns="http://www.w3.org/2000/svg">
<path d="M13.6133 4.24707L0.770564 4.24707C0.344993 4.24707 0 4.58627 0 5.00469C0 5.42311 0.344993 5.76231 0.770564 5.76231L13.6133 5.76231C14.0389 5.76231 14.3839 5.42311 14.3839 5.00469C14.3839 4.58627 14.0389 4.24707 13.6133 4.24707Z" fill="white"/>
<path d="M13.7619 5.53572C14.0628 5.83159 14.5507 5.83159 14.8516 5.53572C15.1525 5.23985 15.1525 4.76015 14.8516 4.46428L10.8559 0.535666C10.555 0.239796 10.0671 0.239796 9.76615 0.535666C9.46523 0.831536 9.46523 1.31124 9.76615 1.60711L13.7619 5.53572Z" fill="white"/>
<path d="M9.76568 8.39284C9.46475 8.68871 9.46475 9.16841 9.76568 9.46428C10.0666 9.76015 10.5545 9.76015 10.8554 9.46428L14.8511 5.53566C15.1521 5.23979 15.1521 4.76009 14.8511 4.46422C14.5502 4.16835 14.0623 4.16835 13.7614 4.46422L9.76568 8.39284Z" fill="white"/>
</svg>
