<svg width="25" height="20" fill="none" xmlns="http://www.w3.org/2000/svg"><path d="M2.6 7.422h-.541A2.06 2.06 0 000 9.47c0 1.129.927 2.053 2.059 2.053h.434c.891 4.506 5.035 7.909 9.991 7.909 4.956 0 9.1-3.403 9.992-7.909h.469A2.06 2.06 0 0025 9.471c0-1.13-.924-2.05-2.055-2.05h-.573C21.387 3.526 17.943.55 13.714.06c.251.351.403.776.403 1.231v2.075a2.081 2.081 0 01-4.163-.003l.007-1.252c-.003-.327.162-.53.289-.678a1.266 1.266 0 011.772-.147c.526.444.593 1.243.148 1.767-.359.424-.996-.114-.637-.537a.415.415 0 00-.05-.595c-.181-.154-.43-.09-.6.016-.055.034-.085.075-.089.17l-.005 1.259a1.233 1.233 0 001.248 1.243c.699 0 1.246-.546 1.246-1.243V1.29c0-.697-.542-1.288-1.26-1.291-4.588.202-8.381 3.298-9.424 7.422zm5.719-.436c.692 0 1.262.567 1.262 1.257s-.57 1.259-1.262 1.259a1.268 1.268 0 01-1.264-1.259c0-.69.572-1.257 1.264-1.257zm8.334 0c.693 0 1.261.567 1.261 1.257s-.569 1.259-1.26 1.259a1.266 1.266 0 01-1.262-1.259c0-.69.57-1.257 1.261-1.257zm-7.947 5.839h7.535c.229 0 .414.187.415.415 0 1.019-.766 1.752-1.615 2.203-.849.45-1.822.675-2.557.675-.735 0-1.707-.224-2.556-.675-.849-.451-1.618-1.184-1.618-2.203a.42.42 0 01.396-.415z" fill="#fff"/></svg>