<svg width="28" height="22" fill="none" xmlns="http://www.w3.org/2000/svg"><path d="M28 1.5c0-.828-.655-1.5-1.475-1.5H5.895c-.814 0-1.474.666-1.474 1.5 0 .83.655 1.502 1.475 1.502h20.629C27.34 3.002 28 2.336 28 1.5zm0 9.006c0-.829-.665-1.5-1.466-1.5H1.466c-.81 0-1.466.666-1.466 1.5 0 .83.665 1.501 1.466 1.501h25.068c.81 0 1.466-.666 1.466-1.5zm0 9.006c0-.83-.663-1.501-1.484-1.501H8.852c-.82 0-1.483.666-1.483 1.5 0 .83.663 1.501 1.483 1.501h17.664c.82 0 1.484-.666 1.484-1.5z" fill="url(#paint0_linear_20_343315)"/><path d="M28 1.5c0-.828-.655-1.5-1.475-1.5H5.895c-.814 0-1.474.666-1.474 1.5 0 .83.655 1.502 1.475 1.502h20.629C27.34 3.002 28 2.336 28 1.5zm0 9.006c0-.829-.665-1.5-1.466-1.5H1.466c-.81 0-1.466.666-1.466 1.5 0 .83.665 1.501 1.466 1.501h25.068c.81 0 1.466-.666 1.466-1.5zm0 9.006c0-.83-.663-1.501-1.484-1.501H8.852c-.82 0-1.483.666-1.483 1.5 0 .83.663 1.501 1.483 1.501h17.664c.82 0 1.484-.666 1.484-1.5z" fill="#fff"/><defs><linearGradient id="paint0_linear_20_343315" x1="-12.8" y1="22.814" x2="19.152" y2="-8.911" gradientUnits="userSpaceOnUse"><stop stop-color="#CB8A1B"/><stop offset=".464" stop-color="#DDA440"/><stop offset=".74" stop-color="#E9C005"/><stop offset="1" stop-color="#E9C104"/></linearGradient></defs></svg>