<svg width="28" height="22" viewBox="0 0 28 22" fill="none" xmlns="http://www.w3.org/2000/svg">
<path d="M28 1.50093C28 0.672046 27.3448 0 26.525 0H5.89585C5.08136 0 4.42087 0.666342 4.42087 1.50093C4.42087 2.32982 5.07607 3.00187 5.89585 3.00187H26.525C27.3395 3.00187 28 2.33553 28 1.50093ZM28 10.5062C28 9.67733 27.3355 9.00529 26.534 9.00529H1.46594C0.656427 9.00529 -1.71661e-05 9.67163 -1.71661e-05 10.5062C-1.71661e-05 11.3351 0.664516 12.0072 1.46594 12.0072H26.534C27.3435 12.0072 28 11.3408 28 10.5062ZM28 19.5115C28 18.6826 27.337 18.0106 26.5163 18.0106H8.85234C8.03287 18.0106 7.36865 18.6769 7.36865 19.5115C7.36865 20.3404 8.03163 21.0124 8.85234 21.0124H26.5163C27.3358 21.0124 28 20.3461 28 19.5115Z" fill="url(#paint0_linear_20_343315)"/>
<path d="M28 1.50093C28 0.672046 27.3448 0 26.525 0H5.89585C5.08136 0 4.42087 0.666342 4.42087 1.50093C4.42087 2.32982 5.07607 3.00187 5.89585 3.00187H26.525C27.3395 3.00187 28 2.33553 28 1.50093ZM28 10.5062C28 9.67733 27.3355 9.00529 26.534 9.00529H1.46594C0.656427 9.00529 -1.71661e-05 9.67163 -1.71661e-05 10.5062C-1.71661e-05 11.3351 0.664516 12.0072 1.46594 12.0072H26.534C27.3435 12.0072 28 11.3408 28 10.5062ZM28 19.5115C28 18.6826 27.337 18.0106 26.5163 18.0106H8.85234C8.03287 18.0106 7.36865 18.6769 7.36865 19.5115C7.36865 20.3404 8.03163 21.0124 8.85234 21.0124H26.5163C27.3358 21.0124 28 20.3461 28 19.5115Z" fill="white"/>
<defs>
<linearGradient id="paint0_linear_20_343315" x1="-12.8" y1="22.8135" x2="19.1523" y2="-8.91117" gradientUnits="userSpaceOnUse">
<stop stop-color="#CB8A1B"/>
<stop offset="0.463542" stop-color="#DDA440"/>
<stop offset="0.739583" stop-color="#E9C005"/>
<stop offset="1" stop-color="#E9C104"/>
</linearGradient>
</defs>
</svg>
