<svg width="32" height="44" fill="none" xmlns="http://www.w3.org/2000/svg"><path d="M4 0C1.801 0 0 1.801 0 4v36c0 2.199 1.801 4 4 4h24c2.199 0 4-1.801 4-4V11h-7c-2.199 0-4-1.801-4-4V0H4zm19 .434V7c0 1.125.875 2 2 2h6.42L23 .434zM7.006 16h17.988a1 1 0 110 2H7.006a1 1 0 010-2zm0 6h17.988a1 1 0 110 2H7.006a1 1 0 010-2zm0 6h17.988a1 1 0 110 2H7.006a1 1 0 010-2zm0 6h17.988a1 1 0 110 2H7.006a1 1 0 010-2z" fill="url(#paint0_linear_1_117206)"/><defs><linearGradient id="paint0_linear_1_117206" x1="46.629" y1="47.771" x2="-9.427" y2="17.396" gradientUnits="userSpaceOnUse"><stop stop-color="#CB8A1B"/><stop offset=".464" stop-color="#DDA440"/><stop offset=".74" stop-color="#E9C005"/><stop offset="1" stop-color="#E9C104"/></linearGradient></defs></svg>