<svg width="24" height="24" fill="none" xmlns="http://www.w3.org/2000/svg"><g clip-path="url(#clip0)"><path d="M23.937 9.206a1.273 1.273 0 00-1.098-.877l-6.927-.63-2.739-6.41a1.276 1.276 0 00-2.346 0L8.088 7.7l-6.928.63a1.275 1.275 0 00-.724 2.232l5.236 4.592-1.544 6.801a1.275 1.275 0 001.897 1.378L12 19.762l5.973 3.57a1.276 1.276 0 001.898-1.378l-1.544-6.801 5.236-4.591c.385-.337.533-.87.374-1.356z" fill="#FFC107"/></g><defs><clipPath id="clip0"><path fill="#fff" d="M0 0h24v24H0z"/></clipPath></defs></svg>